<svg width="175" height="61" viewBox="0 0 175 61" fill="none" xmlns="http://www.w3.org/2000/svg">
<path d="M158.865 16.4312C167.169 16.2557 174.052 22.8257 174.262 31.128C174.472 39.4304 167.931 46.3407 159.63 46.5861C151.279 46.8329 144.318 40.2443 144.107 31.8924C143.895 23.5405 150.513 16.6077 158.865 16.4312ZM160.173 38.7501C164.141 38.1826 166.9 34.5081 166.339 30.5387C165.777 26.5692 162.107 23.8047 158.136 24.3606C154.158 24.9177 151.386 28.5974 151.949 32.5751C152.512 36.5527 156.196 39.3188 160.173 38.7501Z" fill="#16232B"/>
<path d="M119.73 5.67969C120.312 5.67548 120.928 5.68853 121.231 5.72754C121.287 5.73468 121.332 5.73971 121.376 5.74121C122.332 5.77406 123.214 5.91371 124.138 6.08691C128.845 6.96946 133.166 9.3969 136.444 12.8711C136.518 12.9489 136.599 13.0372 136.683 13.1289C137.023 13.5039 137.053 14.0409 136.818 14.4648C136.191 15.5997 135.617 16.588 134.955 17.6465C134.488 18.3925 133.449 18.4001 132.914 17.7383C132.834 17.6398 132.753 17.5424 132.671 17.4463C126.821 10.6225 116.688 9.55587 109.562 15.0361C102.166 20.7246 100.755 31.2507 106.381 38.6689C108.163 41.0184 110.375 42.7039 113.048 43.9014C113.279 44.0048 113.55 43.9756 113.761 43.8242C118.524 40.3957 122.605 36.8137 126.659 32.6602C127.113 32.1954 126.787 31.4153 126.128 31.4121L117.168 31.3682C116.478 31.3648 115.92 30.8027 115.923 30.1123L115.935 26.7246C115.937 26.0497 116.476 25.4933 117.158 25.4912C118 25.489 118.846 25.5068 119.684 25.5127H119.683L125.48 25.5352L129.729 25.5371H129.731C131.982 25.5561 133.819 25.5652 135.578 27.4365L135.582 27.4404C136.029 27.9359 136.307 28.2896 136.59 28.8486L136.711 29.1016L136.714 29.1064C137.389 30.6665 137.249 31.9002 137.248 33.4697C137.244 37.5431 137.195 41.5858 137.196 45.6553C137.197 46.3538 136.631 46.8846 135.954 46.9062C135.898 46.908 135.848 46.9108 135.805 46.9141L135.804 46.9131C135.615 46.94 135.34 46.9495 135.08 46.9521C134.897 46.954 134.705 46.9527 134.545 46.9521C134.531 46.96 134.517 46.9698 134.5 46.9766C134.47 46.9888 134.415 47.006 134.349 46.999C134.345 46.9986 134.342 46.9966 134.338 46.9961C134.315 47.0054 134.29 47.0137 134.262 47.0156C134.231 47.0177 134.202 47.0144 134.176 47.0068C134.15 46.9994 134.128 46.9891 134.111 46.9785C134.098 46.9703 134.088 46.961 134.079 46.9531C133.975 46.9538 133.854 46.9549 133.723 46.9561C133.513 46.9579 133.276 46.9601 133.042 46.96C132.588 46.9597 132.119 46.9513 131.866 46.917C131.863 46.9167 131.859 46.9164 131.855 46.916H131.854V46.915C131.726 46.9006 131.605 46.8482 131.514 46.7539C131.419 46.6562 131.369 46.5284 131.361 46.3936C131.302 45.2805 131.338 40.7787 131.357 37.9336C131.362 37.2921 130.655 36.9943 130.188 37.4619C130.137 37.5135 130.085 37.5642 130.032 37.6152C122.674 44.798 114.326 51.9143 104.48 55.4336C102.38 56.1842 99.7185 56.5836 97.374 56.1406C95.0193 55.6956 92.961 54.3921 92.1611 51.7305C91.5713 49.7678 91.69 47.635 92.1729 45.542C92.656 43.4479 93.5074 41.377 94.4004 39.5303C94.8652 38.5692 96.2016 38.6466 96.6436 39.5742C97.2031 40.7493 97.7117 41.6354 98.6211 42.999C98.8485 43.3401 98.8976 43.769 98.7529 44.1523C98.4144 45.0491 97.8781 46.5754 97.6621 47.9209C97.5536 48.5968 97.5302 49.2005 97.6367 49.6484C97.7404 50.0841 97.9531 50.333 98.3066 50.4072C99.4554 50.648 100.86 50.4324 102.316 49.9844C103.767 49.5381 105.24 48.871 106.514 48.2422C107.016 47.9936 107.07 47.2779 106.591 46.9346C105.461 46.1245 104.492 45.3147 103.393 44.1729C100.306 40.9681 98.2798 36.9742 97.4521 32.6094C97.2702 31.6503 97.1012 30.3511 97.1084 29.3428C97.1088 29.2899 97.1044 29.2339 97.0967 29.1709C97.0365 28.6809 97.071 27.7394 97.0967 27.3398C97.5636 18.3009 103.299 10.3499 111.795 7.1377C113.785 6.38538 116.219 5.80188 118.359 5.73926V5.74023C118.615 5.70538 119.176 5.68371 119.73 5.67969Z" fill="#FF5B04" stroke="#FF5B04" stroke-width="0.500528"/>
<path d="M139.454 0.521484C141.649 0.385953 143.543 0.706984 145.372 2.08105C146.841 3.18447 147.654 4.77495 147.847 6.5752C148.161 9.50898 147.22 12.9697 145.771 16.2832C144.32 19.6029 142.346 22.8068 140.557 25.2393C140.037 25.9455 139.016 25.8624 138.479 25.2539C137.871 24.5652 137.169 23.9762 136.392 23.4746C135.744 23.057 135.533 22.1544 135.988 21.5107C136.08 21.3812 136.173 21.25 136.264 21.1221C137.771 18.8967 139.256 16.3775 140.363 13.9473C140.758 13.0804 141.317 11.7867 141.695 10.4873C141.885 9.83762 142.028 9.19203 142.083 8.60254C142.139 8.01056 142.105 7.49216 141.958 7.08496C141.826 6.71812 141.528 6.50042 141.073 6.39746C140.61 6.29254 140.012 6.31602 139.355 6.42285C138.046 6.63596 136.595 7.16132 135.708 7.4873C135.33 7.62606 134.913 7.57024 134.583 7.34766C133.299 6.48143 132.363 5.92571 131.208 5.35547C130.282 4.8981 130.218 3.54607 131.186 3.08398C133.773 1.84874 136.621 0.727741 139.451 0.521484H139.454Z" fill="#FF5B04" stroke="#FF5B04" stroke-width="0.500528"/>
<path d="M57.345 21.6055C57.3922 21.5542 57.4399 21.5032 57.4882 21.4529C59.7501 19.1022 62.6683 17.7055 65.9491 17.6531C69.2476 17.6004 72.3171 18.7706 74.6889 21.0728C78.6148 24.8834 78.3499 29.3834 78.3075 34.4551C78.285 37.1176 78.2952 39.7689 78.336 42.4315C78.3531 43.5626 78.4421 45.0988 77.5777 45.9685C76.8371 46.7134 74.963 46.6178 73.9553 46.6072C73.1006 46.5982 71.8296 46.5426 71.2092 45.8573C69.6123 44.0925 71.0832 32.1092 70.3571 28.9705C70.1587 28.1109 69.7367 27.2974 69.1141 26.6688C68.115 25.6605 66.6125 25.2411 65.2214 25.2346C63.883 25.2284 62.6957 25.7415 61.7567 26.6905C61.036 27.4189 60.5603 28.332 60.3169 29.3226C59.7469 31.643 60.0611 37.4109 60.0713 39.9592C60.0681 42.5803 60.9636 46.8189 57.264 46.5576C55.5148 46.4339 52.4774 47.0324 52.3729 44.3649C52.1997 39.9513 52.456 35.5568 52.3664 31.1404C52.3723 26.2511 48.0815 23.6356 43.9157 26.4407C41.5364 28.0428 41.7992 31.6489 41.809 34.3702L41.8394 40.7406C41.8583 44.174 42.5217 46.8207 37.9561 46.5293C36.0947 46.4106 34.1629 46.6849 34.1063 44.1733C33.9324 36.4599 34.1058 28.6256 34.034 20.9136C33.9998 17.2452 37.7876 18.0896 40.3349 18.2459C41.0877 18.6813 41.3512 18.9987 41.8536 19.6916C44.095 18.267 45.4995 17.9085 48.0928 17.7262L48.2962 17.7281C52.145 17.7785 54.6562 18.8446 57.345 21.6055Z" fill="#16232B"/>
<path d="M13.9872 17.7186C17.0195 17.2671 20.5498 18.2996 23.1011 19.9572C23.6077 19.2446 24.0111 18.7903 24.6961 18.2544C26.0153 17.963 28.4317 18.1043 29.7793 18.2435C30.3241 18.7785 30.7299 19.3033 30.7763 20.0992C30.8706 21.7168 30.8575 23.3406 30.8683 24.9608L30.8808 34.1354C30.8765 35.4922 30.9328 37.2132 30.8636 38.4328C30.5343 44.2314 32.5468 47.4135 24.8939 46.4126C23.9363 46.2873 23.5667 45.6338 23.1362 44.924C22.1414 45.4952 21.4375 45.8424 20.3897 46.3137C15.6324 47.7839 10.4031 47.1949 6.46607 44.1868C-1.42604 38.157 -1.16574 25.4037 7.22422 19.9793C9.48136 18.52 11.3503 18.0287 13.9872 17.7186ZM16.8445 39.5065C20.7674 38.89 23.4463 35.2082 22.8259 31.2859C22.2055 27.3636 18.521 24.6884 14.5994 25.3127C10.6833 25.9362 8.01262 29.6143 8.63215 33.531C9.25173 37.4477 12.9272 40.1221 16.8445 39.5065Z" fill="#16232B"/>
<path d="M83.5857 18.1305C85.1473 18.0506 86.4354 18.0729 87.9809 18.2617C88.3723 18.5241 88.8008 18.8233 88.9761 19.2765C89.462 20.529 89.315 41.2304 89.1976 43.769C89.1767 44.2258 89.1681 44.7862 88.9686 45.2039C88.6276 45.9186 88.1036 46.2344 87.3765 46.4805C85.9222 46.5663 81.8751 47.0529 81.7496 45.0161C81.252 36.9375 81.5673 28.6742 81.6022 20.5645C81.6081 19.1188 82.1733 18.3876 83.5857 18.1305Z" fill="#16232B"/>
<path d="M84.9507 5.0939C87.8974 4.96718 90.3905 7.24978 90.5235 10.1962C90.6564 13.1426 88.379 15.6406 85.4328 15.78C82.4781 15.9197 79.9706 13.6341 79.8371 10.6787C79.7041 7.7234 81.9949 5.22104 84.9507 5.0939Z" fill="#16232B"/>
</svg>
