<svg width="58" height="57" viewBox="0 0 58 57" fill="none" xmlns="http://www.w3.org/2000/svg">
<path d="M28.7305 5.67969C29.3116 5.67548 29.9277 5.68853 30.2314 5.72754C30.287 5.73468 30.3324 5.73971 30.376 5.74121C31.3316 5.77406 32.2139 5.91371 33.1377 6.08691C37.8454 6.96946 42.1656 9.3969 45.4443 12.8711C45.5178 12.9489 45.5995 13.0372 45.6826 13.1289C46.0227 13.5039 46.0528 14.0409 45.8184 14.4648C45.191 15.5997 44.6174 16.588 43.9551 17.6465C43.4883 18.3925 42.4488 18.4001 41.9141 17.7383C41.8345 17.6398 41.7533 17.5424 41.6709 17.4463C35.821 10.6225 25.6881 9.55587 18.5625 15.0361C11.1662 20.7246 9.75459 31.2507 15.3809 38.6689C17.1629 41.0184 19.3755 42.7039 22.0479 43.9014C22.2789 44.0048 22.5504 43.9756 22.7607 43.8242C27.5238 40.3957 31.6054 36.8137 35.6592 32.6602C36.1127 32.1954 35.7866 31.4153 35.1279 31.4121L26.168 31.3682C25.4776 31.3648 24.9204 30.8027 24.9229 30.1123L24.9346 26.7246C24.9371 26.0497 25.4762 25.4933 26.1582 25.4912C26.9999 25.489 27.8465 25.5068 28.6836 25.5127H28.6826L34.4805 25.5352L38.7295 25.5371H38.7314C40.9821 25.5561 42.8194 25.5652 44.5781 27.4365L44.582 27.4404C45.0288 27.9359 45.3072 28.2896 45.5898 28.8486L45.7109 29.1016L45.7139 29.1064C46.3888 30.6665 46.2495 31.9002 46.248 33.4697C46.2445 37.5431 46.195 41.5858 46.1963 45.6553C46.1965 46.3538 45.6314 46.8846 44.9541 46.9062C44.8982 46.908 44.8478 46.9108 44.8047 46.9141L44.8037 46.9131C44.6147 46.94 44.3404 46.9495 44.0801 46.9521C43.8971 46.954 43.7045 46.9527 43.5449 46.9521C43.5309 46.96 43.5166 46.9698 43.5 46.9766C43.4699 46.9888 43.4151 47.006 43.3486 46.999C43.345 46.9986 43.3416 46.9966 43.3379 46.9961C43.3148 47.0054 43.2897 47.0137 43.2617 47.0156C43.2311 47.0177 43.202 47.0144 43.1758 47.0068C43.15 46.9994 43.1282 46.9891 43.1113 46.9785C43.0983 46.9703 43.088 46.961 43.0791 46.9531C42.9753 46.9538 42.8544 46.9549 42.7227 46.9561C42.5127 46.9579 42.2763 46.9601 42.042 46.96C41.5885 46.9597 41.1192 46.9513 40.8662 46.917C40.8626 46.9167 40.859 46.9164 40.8555 46.916H40.8545V46.915C40.7258 46.9006 40.6053 46.8482 40.5137 46.7539C40.419 46.6562 40.3686 46.5284 40.3613 46.3936C40.302 45.2805 40.3376 40.7787 40.3574 37.9336C40.3618 37.2921 39.6555 36.9943 39.1885 37.4619C39.137 37.5135 39.0845 37.5642 39.0322 37.6152C31.6739 44.798 23.3257 51.9143 13.4805 55.4336C11.3805 56.1842 8.71846 56.5836 6.37402 56.1406C4.01931 55.6956 1.96104 54.3921 1.16113 51.7305C0.57129 49.7678 0.690031 47.635 1.17285 45.542C1.65597 43.4479 2.50738 41.377 3.40039 39.5303C3.8652 38.5692 5.20164 38.6466 5.64355 39.5742C6.20312 40.7493 6.71175 41.6354 7.62109 42.999C7.84853 43.3401 7.89763 43.769 7.75293 44.1523C7.41443 45.0491 6.87809 46.5754 6.66211 47.9209C6.55361 48.5968 6.53018 49.2005 6.63672 49.6484C6.74038 50.0841 6.95308 50.333 7.30664 50.4072C8.45541 50.648 9.86008 50.4324 11.3164 49.9844C12.7672 49.5381 14.24 48.871 15.5137 48.2422C16.0165 47.9936 16.0696 47.2779 15.5908 46.9346C14.4612 46.1245 13.4922 45.3147 12.3926 44.1729C9.3063 40.9681 7.27982 36.9742 6.45215 32.6094C6.27024 31.6503 6.10121 30.3511 6.1084 29.3428C6.10878 29.2899 6.10442 29.2339 6.09668 29.1709C6.03651 28.6809 6.07098 27.7394 6.09668 27.3398C6.56361 18.3009 12.2994 10.3499 20.7949 7.1377C22.7846 6.38538 25.2193 5.80188 27.3594 5.73926V5.74023C27.6152 5.70538 28.1759 5.68371 28.7305 5.67969Z" fill="#FF5B04" stroke="#FF5B04" stroke-width="0.500528"/>
<path d="M48.4541 0.521484C50.6493 0.385953 52.5428 0.706984 54.3721 2.08105C55.8408 3.18447 56.6537 4.77495 56.8467 6.5752C57.161 9.50898 56.22 12.9697 54.7715 16.2832C53.3202 19.6029 51.3459 22.8068 49.5566 25.2393C49.0369 25.9455 48.0156 25.8624 47.4785 25.2539C46.8707 24.5652 46.1689 23.9762 45.3916 23.4746C44.7444 23.057 44.533 22.1544 44.9883 21.5107C45.08 21.3812 45.1725 21.25 45.2637 21.1221C46.7713 18.8967 48.2557 16.3775 49.3633 13.9473C49.7584 13.0804 50.3167 11.7867 50.6953 10.4873C50.8846 9.83762 51.0275 9.19203 51.083 8.60254C51.1387 8.01056 51.1049 7.49216 50.958 7.08496C50.8257 6.71812 50.5278 6.50042 50.0732 6.39746C49.6097 6.29254 49.012 6.31602 48.3555 6.42285C47.0461 6.63596 45.5952 7.16132 44.708 7.4873C44.3304 7.62606 43.9129 7.57024 43.583 7.34766C42.2994 6.48143 41.3628 5.92571 40.208 5.35547C39.2818 4.8981 39.2176 3.54607 40.1855 3.08398C42.7731 1.84874 45.6207 0.727741 48.4512 0.521484H48.4541Z" fill="#FF5B04" stroke="#FF5B04" stroke-width="0.500528"/>
</svg>
